<?xml version="1.0" encoding="UTF-8" standalone="no"?>
<!-- Generator: Adobe Illustrator 16.0.0, SVG Export Plug-In . SVG Version: 6.00 Build 0)  -->

<svg
   xmlns:dc="http://purl.org/dc/elements/1.1/"
   xmlns:cc="http://creativecommons.org/ns#"
   xmlns:rdf="http://www.w3.org/1999/02/22-rdf-syntax-ns#"
   xmlns:svg="http://www.w3.org/2000/svg"
   xmlns="http://www.w3.org/2000/svg"
   xmlns:sodipodi="http://sodipodi.sourceforge.net/DTD/sodipodi-0.dtd"
   xmlns:inkscape="http://www.inkscape.org/namespaces/inkscape"
   version="1.1"
   id="Layer_1"
   x="0px"
   y="0px"
   width="32px"
   height="29.665px"
   viewBox="0 0 32 29.665"
   style="enable-background:new 0 0 32 29.665;"
   xml:space="preserve"
   inkscape:version="0.48.5 r10040"
   sodipodi:docname="house109.svg"><metadata
   id="metadata3069"><rdf:RDF><cc:Work
       rdf:about=""><dc:format>image/svg+xml</dc:format><dc:type
         rdf:resource="http://purl.org/dc/dcmitype/StillImage" /></cc:Work></rdf:RDF></metadata><defs
   id="defs3067" /><sodipodi:namedview
   pagecolor="#ffffff"
   bordercolor="#666666"
   borderopacity="1"
   objecttolerance="10"
   gridtolerance="10"
   guidetolerance="10"
   inkscape:pageopacity="0"
   inkscape:pageshadow="2"
   inkscape:window-width="1600"
   inkscape:window-height="838"
   id="namedview3065"
   showgrid="false"
   inkscape:zoom="15.517495"
   inkscape:cx="23.606638"
   inkscape:cy="15.663002"
   inkscape:window-x="-8"
   inkscape:window-y="-8"
   inkscape:window-maximized="1"
   inkscape:current-layer="g3029" />
<g
   id="g3029"
   transform="translate(0.13670507,0.45568358)">
	<polygon
   points="0,10.496 14.337,13.581 21.798,1.203 29.94,10.861 32,10.842 22.968,0.12 6.122,0 0,9.419 "
   id="polygon3031"
   style="fill:#550000"
   transform="matrix(0.88319636,0,0,0.89138144,1.8688583,1.6110847)" />
	<path
   d="m 14.986091,14.502243 -12.4327555,-2.765956 0.00442,10.852569 7.2695892,3.139445 v -6.948318 l 3.6246383,1.086594 v 7.427881 l 1.731064,0.747869 v 0.01159 L 27.576938,22.702952 V 12.195348 11.968937 11.437674 L 21.176414,3.7878382 14.986091,14.502243 z M 7.5186654,21.58516 4.4380765,20.503914 v -2.606399 l 3.0805889,0.958235 v 2.72941 z m 0.1633913,-4.258129 -3.09472,-0.891381 v -2.612639 l 3.09472,0.767479 v 2.736541 z m 5.7708053,1.660644 -3.6246381,-1.043808 v -2.821222 l 3.6246381,0.898512 v 2.966518 z m 7.793324,3.299002 -3.725322,1.315679 v -3.046741 l 3.725322,-1.160579 v 2.891641 z m 1.448442,-7.657858 3.231616,-0.802243 v 2.698212 l -3.231616,0.936842 v -2.832811 z m -0.02738,4.324092 3.234265,-1.008153 v 2.699103 l -3.234265,1.14186 v -2.83281 z m -1.391034,-1.081246 -3.722673,1.079463 v -3.044959 l 3.722673,-0.925254 v 2.89075 z"
   id="path3033"
   inkscape:connector-curvature="0"
   style="fill:#550000" />
</g>
<g
   id="g3035">
</g>
<g
   id="g3037">
</g>
<g
   id="g3039">
</g>
<g
   id="g3041">
</g>
<g
   id="g3043">
</g>
<g
   id="g3045">
</g>
<g
   id="g3047">
</g>
<g
   id="g3049">
</g>
<g
   id="g3051">
</g>
<g
   id="g3053">
</g>
<g
   id="g3055">
</g>
<g
   id="g3057">
</g>
<g
   id="g3059">
</g>
<g
   id="g3061">
</g>
<g
   id="g3063">
</g>
</svg>